#Comment line ignore any data following # character 
#Hierarchical Translation and Rotation (.htr) file 
[Header]	
#Header keywords are followed by a single value 
FileType HTR		#Single word string
DataType HTRS		#Translation followed by rotation and scale data
FileVersion 1		#integer
NumSegments 64		#integer
NumFrames 3		#integer
DataFrameRate 30		#integer, data frame rate in this file
EulerRotationOrder ZYX
CalibrationUnits mm
RotationUnits Degrees
GlobalAxisofGravity Y
BoneLengthAxis Y
ScaleFactor 1.00
[SegmentNames&Hierarchy]
#CHILD	PARENT
Pinger_Root GLOBAL
Pelvis Pinger_Root
L_Hip Pelvis
R_Hip Pelvis
Rear_Leg01 Pelvis
Spine1 Pelvis
L_Leg01 L_Hip
L_Leg02 L_Leg01
L_Leg03 L_Leg02
L_Foot L_Leg03
L_Toe1_01 L_Foot
L_Toe2_01 L_Foot
L_Toe3_01 L_Foot
planeAlignerLeft L_Foot
L_Toe1_02 L_Toe1_01
L_Toe1_03 L_Toe1_02
L_Toe2_02 L_Toe2_01
L_Toe2_03 L_Toe2_02
L_Toe3_02 L_Toe3_01
L_Toe3_03 L_Toe3_02
planeLockWeightLeft planeAlignerLeft
R_Leg01 R_Hip
R_Leg02 R_Leg01
R_Leg03 R_Leg02
R_Foot R_Leg03
planeAlignerRight R_Foot
R_Toe1_01 R_Foot
R_Toe2_01 R_Foot
R_Toe3_01 R_Foot
planeLockWeightRight planeAlignerRight
R_Toe1_02 R_Toe1_01
R_Toe1_03 R_Toe1_02
R_Toe2_02 R_Toe2_01
R_Toe2_03 R_Toe2_02
R_Toe3_02 R_Toe3_01
R_Toe3_03 R_Toe3_02
Rear_Leg02 Rear_Leg01
Rear_Leg03 Rear_Leg02
Rear_Leg04 Rear_Leg03
Rear_Foot Rear_Leg04
planeAlignerCenter Rear_Foot
Rear_Toe1_01 Rear_Foot
Rear_Toe2_01 Rear_Foot
Rear_Toe3_01 Rear_Foot
planeLockWeightCenter planeAlignerCenter
Rear_Toe1_02 Rear_Toe1_01
Rear_Toe1_03 Rear_Toe1_02
Rear_Toe2_02 Rear_Toe2_01
Rear_Toe2_03 Rear_Toe2_02
Rear_Toe3_02 Rear_Toe3_01
Rear_Toe3_03 Rear_Toe3_02
Back_Bone Spine1
Head Spine1
Motor_Bone Back_Bone
Ping_Mechanism Back_Bone
BN_LookIK Head
bottomMouth Head
L_Mouth01 Head
L_mouthFront Head
mouthGun Head
R_Mouth01 Head
R_mouthFront Head
TopMouth Head
weapon_bone Head
[BasePosition]
#SegmentName Tx, Ty, Tz, Rx, Ry, Rz, BoneLength
Pinger_Root 0.000000 0.000000 0.000000 -90.000000 0.000000 0.000000 10.000000 
Pelvis 0.000000 0.000000 0.000000 0.000000 0.000000 0.000000 10.000000 
L_Hip 0.000000 0.000000 0.000000 0.000000 0.000000 0.000000 10.000000 
R_Hip 0.000000 0.000000 0.000000 0.000000 0.000000 0.000000 10.000000 
Rear_Leg01 0.000000 0.000000 0.000000 0.000000 0.000000 0.000000 10.000000 
Spine1 0.000000 0.000000 0.000000 0.000000 0.000000 0.000000 10.000000 
L_Leg01 0.000000 0.000000 0.000000 0.000000 0.000000 0.000000 10.000000 
L_Leg02 0.000000 0.000000 0.000000 0.000000 0.000000 0.000000 10.000000 
L_Leg03 0.000000 0.000000 0.000000 0.000000 0.000000 0.000000 10.000000 
L_Foot 0.000000 0.000000 0.000000 0.000000 0.000000 0.000000 10.000000 
L_Toe1_01 0.000000 0.000000 0.000000 0.000000 0.000000 0.000000 10.000000 
L_Toe2_01 0.000000 0.000000 0.000000 0.000000 0.000000 0.000000 10.000000 
L_Toe3_01 0.000000 0.000000 0.000000 0.000000 0.000000 0.000000 10.000000 
planeAlignerLeft 0.000000 0.000000 0.000000 0.000000 0.000000 0.000000 10.000000 
L_Toe1_02 0.000000 0.000000 0.000000 0.000000 0.000000 0.000000 10.000000 
L_Toe1_03 0.000000 0.000000 0.000000 0.000000 0.000000 0.000000 10.000000 
L_Toe2_02 0.000000 0.000000 0.000000 0.000000 0.000000 0.000000 10.000000 
L_Toe2_03 0.000000 0.000000 0.000000 0.000000 0.000000 0.000000 10.000000 
L_Toe3_02 0.000000 0.000000 0.000000 0.000000 0.000000 0.000000 10.000000 
L_Toe3_03 0.000000 0.000000 0.000000 0.000000 0.000000 0.000000 10.000000 
planeLockWeightLeft 0.000000 0.000000 0.000000 0.000000 0.000000 0.000000 10.000000 
R_Leg01 0.000000 0.000000 0.000000 0.000000 0.000000 0.000000 10.000000 
R_Leg02 0.000000 0.000000 0.000000 0.000000 0.000000 0.000000 10.000000 
R_Leg03 0.000000 0.000000 0.000000 0.000000 0.000000 0.000000 10.000000 
R_Foot 0.000000 0.000000 0.000000 0.000000 0.000000 0.000000 10.000000 
planeAlignerRight 0.000000 0.000000 0.000000 0.000000 0.000000 0.000000 10.000000 
R_Toe1_01 0.000000 0.000000 0.000000 0.000000 0.000000 0.000000 10.000000 
R_Toe2_01 0.000000 0.000000 0.000000 0.000000 0.000000 0.000000 10.000000 
R_Toe3_01 0.000000 0.000000 0.000000 0.000000 0.000000 0.000000 10.000000 
planeLockWeightRight 0.000000 0.000000 0.000000 0.000000 0.000000 0.000000 10.000000 
R_Toe1_02 0.000000 0.000000 0.000000 0.000000 0.000000 0.000000 10.000000 
R_Toe1_03 0.000000 0.000000 0.000000 0.000000 0.000000 0.000000 10.000000 
R_Toe2_02 0.000000 0.000000 0.000000 0.000000 0.000000 0.000000 10.000000 
R_Toe2_03 0.000000 0.000000 0.000000 0.000000 0.000000 0.000000 10.000000 
R_Toe3_02 0.000000 0.000000 0.000000 0.000000 0.000000 0.000000 10.000000 
R_Toe3_03 0.000000 0.000000 0.000000 0.000000 0.000000 0.000000 10.000000 
Rear_Leg02 0.000000 0.000000 0.000000 0.000000 0.000000 0.000000 10.000000 
Rear_Leg03 0.000000 0.000000 0.000000 0.000000 0.000000 0.000000 10.000000 
Rear_Leg04 0.000000 0.000000 0.000000 0.000000 0.000000 0.000000 10.000000 
Rear_Foot 0.000000 0.000000 0.000000 0.000000 0.000000 0.000000 10.000000 
planeAlignerCenter 0.000000 0.000000 0.000000 0.000000 0.000000 0.000000 10.000000 
Rear_Toe1_01 0.000000 0.000000 0.000000 0.000000 0.000000 0.000000 10.000000 
Rear_Toe2_01 0.000000 0.000000 0.000000 0.000000 0.000000 0.000000 10.000000 
Rear_Toe3_01 0.000000 0.000000 0.000000 0.000000 0.000000 0.000000 10.000000 
planeLockWeightCenter 0.000000 0.000000 0.000000 0.000000 0.000000 0.000000 10.000000 
Rear_Toe1_02 0.000000 0.000000 0.000000 0.000000 0.000000 0.000000 10.000000 
Rear_Toe1_03 0.000000 0.000000 0.000000 0.000000 0.000000 0.000000 10.000000 
Rear_Toe2_02 0.000000 0.000000 0.000000 0.000000 0.000000 0.000000 10.000000 
Rear_Toe2_03 0.000000 0.000000 0.000000 0.000000 0.000000 0.000000 10.000000 
Rear_Toe3_02 0.000000 0.000000 0.000000 0.000000 0.000000 0.000000 10.000000 
Rear_Toe3_03 0.000000 0.000000 0.000000 0.000000 0.000000 0.000000 10.000000 
Back_Bone 0.000000 0.000000 0.000000 0.000000 0.000000 0.000000 10.000000 
Head 0.000000 0.000000 0.000000 0.000000 0.000000 0.000000 10.000000 
Motor_Bone 0.000000 0.000000 0.000000 0.000000 0.000000 0.000000 10.000000 
Ping_Mechanism 0.000000 0.000000 0.000000 0.000000 0.000000 0.000000 10.000000 
BN_LookIK 0.000000 0.000000 0.000000 0.000000 0.000000 0.000000 10.000000 
bottomMouth 0.000000 0.000000 0.000000 0.000000 0.000000 0.000000 10.000000 
L_Mouth01 0.000000 0.000000 0.000000 0.000000 0.000000 0.000000 10.000000 
L_mouthFront 0.000000 0.000000 0.000000 0.000000 0.000000 0.000000 10.000000 
mouthGun 0.000000 0.000000 0.000000 0.000000 0.000000 0.000000 10.000000 
R_Mouth01 0.000000 0.000000 0.000000 0.000000 0.000000 0.000000 10.000000 
R_mouthFront 0.000000 0.000000 0.000000 0.000000 0.000000 0.000000 10.000000 
TopMouth 0.000000 0.000000 0.000000 0.000000 0.000000 0.000000 10.000000 
weapon_bone 0.000000 0.000000 0.000000 0.000000 0.000000 0.000000 10.000000 
#Beginning of Data. Separated by tabs
#Fr	Tx	Ty	Tz	Rx	Ry	Rz	SF
[Pinger_Root]
4 0.000000 0.000000 0.000000 -0.000075 -0.000000 -0.000020 0.000000
5 0.000000 0.000000 0.000000 -0.000075 -0.000000 -0.000020 0.000000
6 0.000000 0.000000 0.000000 -0.000075 -0.000000 -0.000020 0.000000
[Pelvis]
4 89.965904 1120.447144 3946.959717 -69.597946 -85.544159 75.457985 4103.898926
5 110.605850 1191.247192 3778.564941 -58.770725 -84.918663 68.249420 3963.439941
6 193.215393 1231.990845 3681.909912 -60.409382 -80.624954 72.624634 3887.363281
[L_Hip]
4 5.766392 125.831482 872.656799 160.158691 -45.484905 122.312202 881.701050
5 5.766392 125.831482 872.656799 160.158691 -45.484905 122.312202 881.701050
6 5.766392 125.831482 872.656799 160.158691 -45.484913 122.312202 881.701050
[R_Hip]
4 5.765438 125.836372 -872.654907 38.087845 49.812698 125.703743 881.699829
5 5.765438 125.836372 -872.654907 38.087841 49.812687 125.703735 881.699829
6 5.765438 125.836372 -872.654907 38.087841 49.812687 125.703735 881.699829
[Rear_Leg01]
4 -192.298416 -925.602966 -0.001907 179.986740 -9.395680 -120.476318 945.367432
5 -192.298416 -925.602966 -0.001907 -178.842834 -14.658616 -114.522362 945.367432
6 -192.298416 -925.602966 -0.001907 -169.354691 -20.460938 -121.089157 945.367432
[Spine1]
4 290.604584 5.007505 0.000477 -8.043480 5.249654 25.801218 290.647736
5 290.604584 5.007505 0.000477 -12.149336 6.948793 27.719980 290.647736
6 290.604584 5.007505 0.000477 -15.628296 7.450678 26.968706 290.647736
[L_Leg01]
4 761.932007 -0.002384 -0.069261 33.222355 -20.208523 -22.013475 761.932068
5 761.932007 -0.002384 -0.069261 36.386974 -20.393312 -25.588629 761.932068
6 761.932007 -0.002384 -0.069261 37.696827 -19.957733 -28.909868 761.932068
[L_Leg02]
4 1441.140503 -0.000954 -0.000715 5.609659 1.312647 -124.866089 1441.140503
5 1441.140503 -0.000954 -0.000715 6.631514 2.296588 -123.004387 1441.140503
6 1441.140503 -0.000954 -0.000715 7.097269 2.887634 -112.411186 1441.140503
[L_Leg03]
4 1686.963989 -0.000715 -0.000954 -0.095446 0.055583 135.873474 1686.963989
5 1686.963989 -0.000715 -0.000954 -0.111836 0.068779 140.952530 1686.963989
6 1686.963989 -0.000715 -0.000954 -0.122711 0.077637 143.586685 1686.963989
[L_Foot]
4 3041.570068 -30.715107 11.297464 4.476176 12.642417 46.360428 3041.746094
5 3041.570068 -30.715107 11.297464 4.776090 12.847754 43.249378 3041.746094
6 3041.570068 -30.715107 11.297464 3.820457 13.551030 36.922344 3041.746094
[L_Toe1_01]
4 -188.216690 -224.732346 -21.137953 94.028946 -6.860283 -176.001251 293.899567
5 -188.216690 -224.732346 -21.137953 94.057663 -6.861371 -176.469498 293.899567
6 -188.216690 -224.732346 -21.137953 94.297943 -6.825402 -178.137650 293.899567
[L_Toe2_01]
4 200.746536 -219.926590 148.838394 -91.876640 -27.587717 -47.485332 332.896027
5 200.746536 -219.926590 148.838394 -92.118858 -27.736706 -46.818737 332.896027
6 200.746536 -219.926590 148.838394 -91.907066 -27.088924 -47.661392 332.896027
[L_Toe3_01]
4 188.832520 -219.859131 -191.078659 -98.930252 15.320079 -61.968853 347.140900
5 188.832520 -219.859131 -191.078659 -98.807686 15.506105 -61.230667 347.140900
6 188.832520 -219.859131 -191.078659 -98.927689 14.893767 -61.749966 347.140900
[planeAlignerLeft]
4 32.991329 -522.731873 101.100616 169.306686 -76.298256 89.968483 533.440186
5 32.992859 -514.101379 101.101913 169.306686 -76.298271 89.968506 524.986023
6 60.173664 -524.765076 100.634232 169.306686 -76.298271 89.968506 537.704834
[L_Toe1_02]
4 413.761139 0.000477 0.000000 0.001384 -25.971058 0.001384 413.761139
5 413.761139 0.000477 0.000000 0.001384 -25.957100 0.001384 413.761139
6 413.761139 0.000477 0.000000 0.001387 -25.571526 0.001387 413.761139
[L_Toe1_03]
4 464.317322 0.000358 -0.000089 0.003958 55.505836 0.003958 464.317322
5 464.317322 0.000358 -0.000089 0.003979 55.690346 0.003979 464.317322
6 464.317322 0.000358 -0.000089 0.004873 62.126419 0.004873 464.317322
[L_Toe2_02]
4 342.235809 -0.000477 0.000238 0.001184 -74.730042 0.001184 342.235809
5 342.235809 -0.000477 0.000238 0.001184 -74.972916 0.001184 342.235809
6 342.235809 -0.000477 0.000238 0.001186 -73.293221 0.001186 342.235809
[L_Toe2_03]
4 420.210846 -0.000715 0.000000 -179.968704 88.007278 -179.965195 420.210846
5 420.210846 -0.000715 0.000000 -179.977707 87.260124 -179.974213 420.210846
6 420.210846 -0.000715 0.000000 -0.031706 87.801361 -0.028209 420.210846
[L_Toe3_02]
4 329.270111 0.000954 0.000000 0.001176 -82.372520 0.001176 329.270111
5 329.270111 0.000954 0.000000 0.001176 -82.550079 0.001176 329.270111
6 329.270111 0.000954 0.000000 0.001177 -81.788933 0.001177 329.270111
[L_Toe3_03]
4 439.137451 -0.001907 0.000954 -179.998459 69.985291 -179.994919 439.137451
5 439.137451 -0.001907 0.000954 -179.998627 68.986198 -179.995071 439.137451
6 439.137451 -0.001907 0.000954 -179.997894 72.940262 -179.994370 439.137451
[planeLockWeightLeft]
4 1000.000000 -0.000042 -0.000161 -0.011826 -0.004376 0.005620 1000.000000
5 1000.000000 -0.000055 -0.000160 -0.011826 -0.004376 0.005620 1000.000000
6 1000.000000 -0.000069 -0.000160 -0.011826 -0.004376 0.005620 1000.000000
[R_Leg01]
4 761.455627 -0.001907 -0.000358 119.613815 31.016151 53.242386 761.455688
5 761.455627 -0.001907 -0.000358 130.106995 39.029991 64.325203 761.455688
6 761.455627 -0.001907 -0.000358 145.964874 41.241753 73.476830 761.455688
[R_Leg02]
4 1441.140625 0.000000 -0.000238 8.147729 3.822327 -83.778664 1441.140625
5 1441.140625 0.000000 -0.000238 14.134651 6.390793 -67.799644 1441.140625
6 1441.140625 0.000000 -0.000238 13.240759 5.220887 -49.436806 1441.140625
[R_Leg03]
4 1686.963989 0.000954 0.001431 0.131704 -0.085173 145.549240 1686.963989
5 1686.963989 0.000954 0.001431 0.125786 -0.081500 145.171051 1686.963989
6 1686.963989 0.000954 0.001431 0.121106 -0.075891 142.914413 1686.963989
[R_Foot]
4 3041.560059 -30.531288 -11.204481 13.957933 -37.655464 35.661484 3041.734131
5 3041.560059 -30.531288 -11.204481 17.576721 -32.961323 29.684685 3041.734131
6 3041.560059 -30.531288 -11.204481 15.715118 -26.256287 25.449505 3041.734131
[planeAlignerRight]
4 -210.494064 -526.905701 -300.819305 -36.577137 -71.339012 -64.343925 642.206848
5 -233.992920 -505.452148 -296.388000 -36.577137 -71.338989 -64.343903 630.936157
6 -253.756409 -467.186676 -290.140533 -36.577156 -71.339035 -64.343956 605.670898
[R_Toe1_01]
4 -188.383347 -224.864899 21.052242 76.926697 0.373018 -169.770462 294.101532
5 -188.383347 -224.864899 21.052242 77.006264 0.559976 -169.216064 294.101532
6 -188.383347 -224.864899 21.052242 77.119545 0.546320 -169.865509 294.101532
[R_Toe2_01]
4 200.637817 -220.002121 -148.787384 -91.223312 34.946239 -57.193211 332.857574
5 200.637817 -220.002121 -148.787384 -90.513130 35.780972 -55.590614 332.857574
6 200.637817 -220.002121 -148.787384 -88.828926 36.954292 -52.199593 332.857574
[R_Toe3_01]
4 188.606735 -220.092957 191.126343 -73.128197 -11.170717 -73.095146 347.192566
5 188.606735 -220.092957 191.126343 -73.156540 -12.297636 -72.247826 347.192566
6 188.606735 -220.092957 191.126343 -73.265518 -13.995345 -69.964989 347.192566
[planeLockWeightRight]
4 999.999695 0.000610 -0.000587 -0.011823 -0.004379 -0.000027 999.999695
5 999.999695 0.000610 -0.000573 -0.011823 -0.004379 -0.000027 999.999695
6 999.999695 0.000610 -0.000559 -0.011823 -0.004379 -0.000027 999.999695
[R_Toe1_02]
4 413.762085 0.000477 -0.000119 0.001384 -25.982475 0.001384 413.762085
5 413.762085 0.000477 -0.000119 0.001386 -25.708464 0.001386 413.762085
6 413.762085 0.000477 -0.000119 0.001391 -25.059977 0.001391 413.762085
[R_Toe1_03]
4 464.317810 0.000000 0.001088 0.003660 52.591030 0.003660 464.317810
5 464.317810 0.000000 0.001088 0.003174 46.597546 0.003174 464.317810
6 464.317810 0.000000 0.001088 0.000514 41.629124 -0.003319 464.317810
[R_Toe2_02]
4 342.234741 -0.000954 0.000238 -0.002345 -74.338547 -0.002345 342.234741
5 342.234741 -0.000954 0.000238 -0.002341 -75.944679 -0.002341 342.234741
6 342.234741 -0.000954 0.000238 -0.002337 -77.550804 -0.002337 342.234741
[R_Toe2_03]
4 420.210846 0.000715 -0.000268 179.963760 89.074860 179.962021 420.210846
5 420.210846 0.000715 -0.000268 -179.987900 83.631668 -179.991394 420.210846
6 420.210846 0.000715 -0.000268 -179.993057 77.276184 -179.996582 420.210846
[R_Toe3_02]
4 329.270355 -0.000477 -0.000954 0.001179 -79.433121 0.001179 329.270355
5 329.270355 -0.000477 -0.000954 0.001178 -80.787994 0.001178 329.270355
6 329.270355 -0.000477 -0.000954 0.001176 -82.142700 0.001176 329.270355
[R_Toe3_03]
4 439.137939 0.000238 0.001431 -179.993256 82.229630 -179.989746 439.137939
5 439.137939 0.000238 0.001431 -179.996475 77.510651 -179.992966 439.137939
6 439.137939 0.000238 0.001431 -179.998291 71.053543 -179.994736 439.137939
[Rear_Leg02]
4 1162.777710 -0.029802 0.005960 -3.463333 4.852957 -106.657753 1162.777710
5 1162.777710 -0.029802 0.005960 -3.909412 5.990656 -99.092300 1162.777710
6 1162.777710 -0.029802 0.005960 -0.018471 0.035623 -93.139755 1162.777710
[Rear_Leg03]
4 607.192505 -0.013351 -0.073195 0.010284 -0.005513 72.749733 607.192505
5 607.192505 -0.013351 -0.073195 0.010318 -0.005449 72.032707 607.192505
6 607.192505 -0.013351 -0.073195 0.010485 -0.005120 68.405151 607.192505
[Rear_Leg04]
4 995.874512 -0.020504 -0.011921 -0.041668 -0.015256 77.143349 995.874573
5 995.874512 -0.020504 -0.011921 -0.041414 -0.015933 75.276627 995.874573
6 995.874512 -0.020504 -0.011921 -0.040121 -0.018955 66.786362 995.874573
[Rear_Foot]
4 3096.176270 -0.067472 -0.041425 35.837765 79.840439 -168.962234 3096.176270
5 3096.176270 -0.067472 -0.041425 36.769043 78.047852 -170.147278 3096.176270
6 3096.176270 -0.067472 -0.041425 0.049836 80.368095 168.601456 3096.176270
[planeAlignerCenter]
4 -22.707224 293.182983 -952.326660 12.240771 -0.001473 179.998184 996.693481
5 -25.677929 329.623688 -975.482666 12.240772 -0.001473 179.998184 1029.989136
6 7.306204 224.406647 -937.266602 12.240769 -0.001473 179.998184 963.784363
[Rear_Toe1_01]
4 0.653352 83.966492 -371.173737 0.268474 75.563042 90.176956 380.553192
5 0.653352 83.966492 -371.173737 0.056863 83.560143 89.965530 380.553192
6 0.653352 83.966492 -371.173737 -3.769320 66.967484 86.137115 380.553192
[Rear_Toe2_01]
4 178.200760 -294.826019 -362.060547 6.390711 46.778858 -78.694878 499.765686
5 178.200760 -294.826019 -362.060547 6.765225 48.565716 -81.613434 499.765686
6 178.200760 -294.826019 -362.060547 6.197416 45.829769 -73.325493 499.765686
[Rear_Toe3_01]
4 -153.359680 -308.780914 -362.060852 19.524662 44.278942 -97.865578 499.952881
5 -153.359680 -308.780914 -362.060852 22.190792 45.692123 -95.514595 499.952881
6 -153.359680 -308.780914 -362.060852 17.661417 43.683666 -97.959473 499.952881
[planeLockWeightCenter]
4 0.000129 0.000305 0.000000 -0.011814 -0.004373 -0.000015 0.000331
5 0.000122 0.000305 0.000000 -0.011814 -0.004373 -0.000015 0.000329
6 0.000353 0.000305 -0.000000 -0.011814 -0.004373 -0.000015 0.000467
[Rear_Toe1_02]
4 379.707825 0.194073 0.000477 -0.006723 -29.906960 -0.006723 379.707855
5 379.707825 0.194073 0.000477 -0.006705 -30.460171 -0.006705 379.707855
6 379.707825 0.194073 0.000477 -0.006719 -30.024714 -0.006719 379.707855
[Rear_Toe1_03]
4 500.129700 0.165701 0.000119 -179.994919 70.027565 -179.998459 500.129761
5 500.129700 0.165701 0.000119 -179.994308 73.174118 -179.997833 500.129761
6 500.129700 0.165701 0.000119 -179.994797 70.675011 -179.998352 500.129761
[Rear_Toe2_02]
4 340.494507 0.000238 -0.000954 -0.002323 -88.209106 -0.002323 340.494507
5 340.494507 0.000238 -0.000954 -0.002323 -88.906570 -0.002323 340.494507
6 340.494507 0.000238 -0.000954 0.001175 -85.034966 0.001175 340.494507
[Rear_Toe2_03]
4 433.103577 0.000000 0.000238 -179.994507 72.295830 -179.998047 433.103546
5 433.103577 0.000000 0.000238 -179.994888 70.160469 -179.998444 433.103546
6 433.103577 0.000000 0.000238 179.984924 81.069061 179.984924 433.103546
[Rear_Toe3_02]
4 340.494141 -0.000358 -0.000477 0.001174 -88.878998 0.001174 340.494171
5 340.494141 -0.000358 -0.000477 0.000000 -89.879669 0.009341 340.494171
6 340.494141 -0.000358 -0.000477 0.001174 -86.045715 0.001174 340.494171
[Rear_Toe3_03]
4 433.103577 0.001431 -0.000238 -179.998428 70.251137 -179.994873 433.103546
5 433.103577 0.001431 -0.000238 -179.998932 66.839645 -179.995346 433.103546
6 433.103577 0.001431 -0.000238 -179.996033 78.471596 -179.992523 433.103546
[Back_Bone]
4 1312.175781 -701.934692 0.000954 2.645938 -1.301859 -85.672005 1488.125488
5 1312.175781 -701.934692 0.000954 2.790756 -1.457651 -85.682373 1488.125488
6 1312.175781 -701.934692 0.000954 2.790756 -1.457651 -85.682373 1488.125488
[Head]
4 1406.159424 809.709290 0.001431 -1.445141 2.239779 7.642077 1622.625488
5 1406.159424 809.709290 0.001431 -1.623609 2.697531 7.613079 1622.625488
6 1406.159424 809.709290 0.001431 -1.623609 2.697531 7.613079 1622.625488
[Motor_Bone]
4 1158.364380 -417.834747 0.000477 3.011719 -1.150756 -114.875557 1231.419434
5 1158.364380 -417.834747 0.000477 3.394448 -1.301977 -115.970810 1231.419434
6 1158.364380 -417.834747 0.000477 3.394447 -1.301976 -115.970810 1231.419434
[Ping_Mechanism]
4 1234.058350 -444.884338 3.863544 0.000103 -0.000053 82.120995 1311.806763
5 1235.547974 -446.893005 6.966800 0.000103 -0.000053 82.120995 1313.902832
6 1252.861572 -459.990234 9.465865 0.000103 -0.000053 82.120995 1334.669556
[BN_LookIK]
4 193.241119 1380.371704 -0.002861 0.000000 89.965736 -31.038179 1393.832153
5 193.241119 1380.371704 -0.002861 0.000000 89.965736 -31.038179 1393.832153
6 193.241119 1380.371704 -0.002861 0.000000 89.965736 -31.038179 1393.832153
[bottomMouth]
4 -435.092926 615.759399 -0.000954 -0.000022 0.000016 73.527184 753.966492
5 -435.092926 615.759399 -0.000954 -0.000022 0.000016 73.527184 753.966492
6 -435.092926 615.759399 -0.000954 -0.000022 0.000016 73.527184 753.966492
[L_Mouth01]
4 554.440979 7.658243 838.222046 150.204178 23.759130 109.605339 1005.027161
5 554.440979 7.658243 838.222046 150.204178 23.759130 109.605339 1005.027161
6 554.440979 7.658243 838.222046 150.204178 23.759130 109.605339 1005.027161
[L_mouthFront]
4 551.629089 934.514771 339.150421 0.000081 2.804060 79.119301 1136.941284
5 551.629089 934.514771 339.150421 0.000081 2.804060 79.119301 1136.941284
6 551.629089 934.514771 339.150421 0.000081 2.804060 79.119301 1136.941284
[mouthGun]
4 55.332661 1627.420898 0.000000 0.000023 0.000009 -11.038128 1628.361328
5 55.332661 1627.420898 0.000000 0.000023 0.000009 -11.038128 1628.361328
6 55.332661 1627.420898 0.000000 0.000023 0.000009 -11.038128 1628.361328
[R_Mouth01]
4 554.442383 7.659197 -838.223938 29.795891 -23.759109 109.605331 1005.029541
5 554.442383 7.659197 -838.223938 29.795891 -23.759109 109.605331 1005.029541
6 554.442383 7.659197 -838.223938 29.795891 -23.759109 109.605331 1005.029541
[R_mouthFront]
4 551.629089 934.514282 -339.151367 0.000029 -2.803930 79.119133 1136.941162
5 551.629089 934.514282 -339.151367 0.000029 -2.803930 79.119133 1136.941162
6 551.629089 934.514282 -339.151367 0.000029 -2.803930 79.119133 1136.941162
[TopMouth]
4 461.269867 -56.106091 -0.008583 -0.000059 -0.000268 92.025169 464.669525
5 461.269867 -56.106091 -0.008583 -0.000059 -0.000268 92.025169 464.669525
6 461.269867 -56.106091 -0.008583 -0.000059 -0.000268 92.025169 464.669525
[weapon_bone]
4 -987.239868 1448.372803 0.001431 0.000000 89.965736 -31.038221 1752.833740
5 -987.239868 1448.372803 0.001431 0.000000 89.965736 -31.038221 1752.833740
6 -987.239868 1448.372803 0.001431 0.000000 89.965736 -31.038221 1752.833740
